<svg version="1.1" id="brand-logo" class="logo-main-color" xmlns="http://www.w3.org/2000/svg"
     xmlns:xlink="http://www.w3.org/1999/xlink" x="0px" y="0px"
     viewBox="0 0 100 41.4" style="enable-background:new 0 0 721.4 120.3;" xml:space="preserve">
<g>
    <path d="M14.3,8.5l-0.6,3c1.2-1,2.7-1.7,4.7-1.7c2.7,0,4.9,1.6,4.9,6.3c0,5.4-2.1,14.1-9.8,14.1c-2,0-3-0.7-3.4-1.4l-2.1,9.8
		l-6,1.4L8.6,8.5H14.3z M17.8,15.9c0-3.1-1.3-3.3-2-3.3c-0.9,0-2,0.7-2.8,2l-2.4,11.2c0.2,0.4,0.6,0.9,1.5,0.9
		C16.4,26.7,17.8,19.7,17.8,15.9z"/>
    <path d="M43.4,9.9l-2.9,13.6c-0.1,0.5-0.2,0.9-0.2,1.3c0,1.1,0.5,1.7,1.6,1.7c1.6,0,2.6-1.8,3.2-3.8H47c-2.3,6.5-5.9,7.4-8,7.4
		c-2.2,0-3.7-1.3-3.9-3.7c-1.2,1.8-3.1,3.7-6,3.7c-2.7,0-5.3-1.7-5.3-6.4c0-5.4,3.3-14,10.3-14c2.3,0,3.2,0.9,3.2,2v0.3l0.4-2.1
		H43.4z M29.6,23.2c0,3.1,1.3,3.1,2,3.1c1.2,0,2.8-1.2,3.3-3.5l1.9-9c0-0.5-0.4-1.5-1.6-1.5C31.8,12.2,29.6,19.4,29.6,23.2z"/>
    <path d="M53.8,9.9l-2.9,13.6c-0.1,0.5-0.2,0.9-0.2,1.3c0,1.1,0.5,1.5,1.6,1.5c1.6,0,3-1.5,3.6-3.5h1.7c-2.3,6.5-6.2,7.4-8.4,7.4
		c-2.4,0-4.3-1.4-4.3-4.8c0-0.8,0.1-1.6,0.3-2.6L48,9.9H53.8z M52,1.4c1.8,0,3.2,1.4,3.2,3.2S53.7,7.8,52,7.8s-3.2-1.4-3.2-3.2
		S50.2,1.4,52,1.4z"/>
    <path d="M75.2,9.9l-4,18.6c2.4-0.9,3.9-2.2,5-5.7h1.7c-1.6,5.3-4.6,6.8-7.1,7.5l-0.6,2.9c-1.2,5.7-4.6,6.8-7.2,6.8
		c-2.4,0-4.5-1.3-4.5-3.9c0-3.4,3.5-5,6.5-6l0.5-2.1c-1.2,1.2-2.7,2.2-4.8,2.2c-2.7,0-5.3-1.7-5.3-6.4c0-5.4,3.3-14,10.3-14
		c2.3,0,3.2,0.9,3.2,2V12l0.4-2.1H75.2z M62.1,36.8c0.8,0,1.8-1.2,2.3-3.6l0.2-1.2c-2,0.8-3.9,1.8-3.9,3.4
		C60.8,36.1,61.2,36.8,62.1,36.8z M61.4,23.2c0,3.1,1.3,3.1,2,3.1c1.1,0,2.6-1.1,3.2-3.1l2-9.5c0-0.4-0.4-1.5-1.6-1.5
		C63.6,12.2,61.4,19.4,61.4,23.2z"/>
    <path d="M86.3,13.4c-1.6,0-2.8,2.4-3,3.5l-2.8,13h-5.8l5.8-27.2L86.4,2L84.3,12c1.7-1.9,3.4-2.2,4.7-2.2c2.6,0,4.4,1.3,4.4,4.5
		c0,3.2-1.9,8.1-1.9,10.3c0,1,0.4,1.7,1.6,1.7c1.8,0,2.5-1.4,3.4-3.5h1.7c-2.2,6.6-5.3,7.4-7.4,7.4c-3.5,0-4.7-2.2-4.7-4.5
		c0-2.7,1.8-7.6,1.8-10.2C87.8,14.1,87.3,13.4,86.3,13.4z"/>
</g>
</svg>
