<?xml version="1.0" encoding="UTF-8"?>
<svg width="221px" height="60px" viewBox="0 0 221 60" version="1.1" xmlns="http://www.w3.org/2000/svg" xmlns:xlink="http://www.w3.org/1999/xlink">
    <title>Thiocyn</title>
    <g id="Symbols" stroke="none" stroke-width="1" fill="none" fill-rule="evenodd">
        <g id="Section/Desktop/Footer" transform="translate(-76.000000, -65.000000)" fill="#000000" fill-rule="nonzero">
            <path d="M76,94.7455667 L86.6626804,94.7455667 L86.6626804,123.982267 L94.5457732,123.982267 L94.5457732,94.7455667 L105.071753,94.7455667 L105.071753,88.1303007 L76,88.1303007 L76,94.7455667 Z M129.632371,101.962221 L116.782474,101.962221 L116.782474,88.1303007 L108.853814,88.1303007 L108.853814,123.982267 L116.782474,123.982267 L116.782474,108.623747 L129.632371,108.623747 L129.632371,123.982267 L137.515464,123.982267 L137.515464,88.1303007 L129.632371,88.1303007 L129.632371,101.962221 Z M145.079588,99.1865844 L153.008247,99.1865844 L153.008247,123.982267 L145.079588,123.982267 Z M176.703093,87.4363917 C166.268247,87.4363917 159.159794,95.0231303 159.159794,106.171935 C159.159794,117.32074 166.268247,124.953739 176.703093,124.953739 C187.137938,124.953739 194.246392,117.32074 194.246392,106.171935 C194.246392,95.0231303 187.137938,87.4363917 176.703093,87.4363917 Z M176.703093,118.153431 C170.961649,118.153431 167.498557,113.619892 167.498557,106.171935 C167.498557,98.770239 171.007216,94.2367001 176.703093,94.2367001 C182.444536,94.2367001 185.862062,98.770239 185.862062,106.171935 C185.862062,113.619892 182.444536,118.153431 176.703093,118.153431 Z M216.665361,118.10717 C211.015052,118.10717 207.506392,113.573631 207.506392,106.125675 C207.506392,98.6777178 210.969485,94.1441789 216.710928,94.1441789 C220.49299,94.1441789 223.22701,96.3184271 223.910515,99.695451 L231.975876,99.232845 C230.654433,91.92367 224.821856,87.5289129 216.619794,87.5289129 C206.139381,87.5289129 199.030928,95.0693909 199.030928,106.171935 C199.030928,117.27448 206.230515,125 216.665361,125 C225.414227,125 231.018969,120.4202 232.52268,112.185813 L224.183918,111.630686 C223.591546,115.79414 220.903093,118.10717 216.665361,118.10717 Z M249.245773,102.887433 L242.182887,88.1303007 L233.388454,88.1303007 L245.32701,110.705474 L245.32701,123.982267 L253.164536,123.982267 L253.164536,110.705474 L265.011959,88.1303007 L256.217526,88.1303007 L249.245773,102.887433 Z" />
        </g>
    </g>
</svg>
