<svg viewBox="0 0 1318.1055104 326.3147055" version="1.1" xmlns="http://www.w3.org/2000/svg">
  <defs>
    <style>
      .cls-1 {
        fill: #efefef;
      }

      .cls-2 {
        fill: #d0ed00;
      }
    </style>
  </defs>
  
  <g>
    <g id="Layer_1">
      <g>
        <path d="M402.736064,243.2030117c-1.6488716,0-3.3077093-.1245759-4.9765132-.378582-10.5011429-1.5983634-19.4319823-8.5426065-24.3735296-17.9452592l-40.6292753-77.3083697c-1.6147535-3.0725127-5.4616519-4.1842645-8.4664837-2.4468098l-119.5997218,69.1549854c-14.4312665,8.3487566-32.751976,4.5013531-42.6118233-8.9443179l-60.2221354-82.1199c-2.235148-3.0478848-1.576287-7.3306302,1.4716055-9.5657677l27.5347357-20.1922877c3.0478869-2.2351335,7.3306214-1.5762647,9.5657523,1.4716241l49.9722732,68.1436312c1.2358717,1.6852703,3.542544,2.1694356,5.3517284,1.1233158l123.8266887-71.5999705c7.6426467-4.4196094,16.8905841-5.548451,25.3709091-3.097697,8.4818821,2.450754,15.7017971,8.3378575,19.8100019,16.1525552l37.4764924,71.3098938c1.5783484,3.0032655,5.7047453,3.4328806,7.8679.8191573l74.9179611-90.5228003c3.3367933-4.0318219,9.3102265-4.5952771,13.3420751-1.258516l22.2478595,18.4123458c4.0318731,3.3367813,4.5953546,9.3102565,1.258571,13.3421277l-94.0420908,113.6320594c-6.2405477,7.5398832-15.4332107,11.8178036-25.0929805,11.8185821Z" class="cls-2"></path>
        <g>
          <path d="M550.6862915,84.3299564h22.7772955l7.1834211,58.0910423,16.662449-38.8302914h21.708721l17.7310235,38.8302914,5.9645148-58.0910423h22.7772955l-11.62024,100.4358468h-23.0820221l-22.7772955-53.963013-22.3181742,53.963013h-23.2364169l-11.7705717-100.4358468Z" class="cls-1"></path>
          <path d="M693.2902013,184.7658031v-100.4358468h69.2501293c20.1810251,0,30.1151114,14.6756317,30.1151114,30.8789593,0,13.6070572-7.6425424,26.1414769-22.7772955,29.1989002.4591214.7638479,1.0726375,1.3753326,1.3773641,2.1391805l22.9316903,38.2188067h-26.1414769l-23.5452065-39.5941393h-27.9738993v39.5941393h-23.2364169ZM716.5266182,123.7697009h46.0137124c4.4327559,0,6.8786945-3.2097866,6.8786945-7.6425424v-2.7526967c0-4.5851192-2.4459386-7.6425424-6.8786945-7.6425424h-46.0137124v18.0377816Z" class="cls-1"></path>
          <path d="M824.7370556,84.3299564h23.2364169v100.4358468h-23.2364169v-100.4358468Z" class="cls-1"></path>
          <path d="M877.6213365,153.732449v-1.9868173h23.0820221v1.9868173c0,4.2803926,3.2097866,7.1854526,8.2560586,9.0199065,4.8918772,1.834454,11.1611186,2.4459386,15.4394797,2.4459386,5.046272,0,11.1611186-.4591214,16.0529958-2.2935753,4.7374824-1.834454,7.7928742-4.7374824,7.7928742-9.6293597,0-4.1280293-3.2097866-6.4216046-8.5567222-7.6445739-2.7547282-.7638479-5.6597882-1.070606-8.4104534-1.2229693-2.90506-.1523633-5.5013304-.1523633-7.6425424-.1523633-21.8631158,0-44.18129-3.975666-44.18129-29.6580215,0-25.0708709,22.3181742-32.2542919,44.9451379-32.2542919,21.3999314,0,45.0954697,9.4769964,45.0954697,32.8657766v2.141212h-23.0820221v-2.141212c0-4.1280293-2.90506-7.0310578-7.3378159-8.8655117-4.5871507-1.834454-10.2428759-2.6003334-14.6756317-2.6003334-4.5871507,0-10.2428759.4591214-14.6756317,2.141212-4.2783611,1.5276959-7.0330893,4.2803926-7.0330893,8.7131485,0,3.8212712,2.90506,5.9624833,7.951332,7.0330893,2.4459386.6114847,5.1966038.9162112,7.7969372,1.070606,2.5962704.1523633,5.1966038.1523633,7.0290263.1523633,22.472569,0,46.0177755,3.9736345,46.0177755,30.4218695,0,25.9870821-23.5452065,33.4772612-47.08635,33.4772612-21.0952049,0-46.7775604-9.017875-46.7775604-33.0201714Z" class="cls-1"></path>
          <path d="M1028.489431,105.7319193h-37.1482007v-21.4019629h97.5287553v21.4019629h-37.1482007v79.0338838h-23.2323539v-79.0338838Z" class="cls-1"></path>
          <path d="M1116.6773011,184.7658031v-100.4358468h69.2501293c20.1810251,0,30.1151114,14.6756317,30.1151114,30.8789593,0,13.6070572-7.6425424,26.1414769-22.7772955,29.1989002.4591214.7638479,1.0726375,1.3753326,1.3773641,2.1391805l22.9316903,38.2188067h-26.1414769l-23.5411435-39.5941393h-27.9779624v39.5941393h-23.2364169ZM1139.913718,123.7697009h46.0137124c4.4327559,0,6.8786945-3.2097866,6.8786945-7.6425424v-2.7526967c0-4.5851192-2.4459386-7.6425424-6.8786945-7.6425424h-46.0137124v18.0377816Z" class="cls-1"></path>
        </g>
      </g>
      <g>
        <path d="M569.2758312,204.3397305c5.8754883,0,10.6079102,1.8935547,14.1967773,5.6787109,3.5878906,3.7861328,5.3828125,8.3613281,5.3828125,13.7236328,0,5.3632812-1.7949219,9.9472656-5.3828125,13.7529297-3.5888672,3.8056641-8.3212891,5.7080078-14.1967773,5.7080078h-18.8696289v-38.8632812h18.8696289ZM576.7885265,231.6385586c1.8530273-2.1884766,2.7797852-4.8203125,2.7797852-7.8964844,0-3.0361328-.9267578-5.6494141-2.7797852-7.8378906-1.8540039-2.1884766-4.3579102-3.2832031-7.5126953-3.2832031h-9.878418v22.3007812h9.878418c3.1547852,0,5.6586914-1.0947266,7.5126953-3.2832031Z" class="cls-1"></path>
        <path d="M633.2787609,204.3397305v8.28125h-28.0385742v6.9804688h20.8217773v8.28125h-20.8217773v7.0390625h28.0385742v8.28125h-37.0297852v-38.8632812h37.0297852Z" class="cls-1"></path>
        <path d="M650.3729992,204.3397305v38.8632812h-8.9912109v-38.8632812h8.9912109Z" class="cls-1"></path>
        <path d="M667.2899914,204.3397305l21.0585938,24.1933594v-24.1933594h8.9316406v38.8632812h-7.8085938l-20.9394531-24.2529297v24.2529297h-8.9912109v-38.8632812h7.7490234Z" class="cls-1"></path>
        <path d="M735.0780773,204.3397305h12.0087891l15.3789062,38.8632812h-9.6416016l-3.7265625-9.5234375h-16.2666016l-3.6679688,9.5234375h-9.5234375l15.4384766-38.8632812ZM746.0214367,225.3983242l-5.1455078-12.3632812-4.9101562,12.3632812h10.0556641Z" class="cls-1"></path>
        <path d="M768.3798351,204.3397305h26.7958984c3.7070312,0,6.5751953,1.1533203,8.6074219,3.4609375,2.0302734,2.3066406,3.0458984,5.1367188,3.0458984,8.4882812,0,2.7607422-.7685547,5.1962891-2.3066406,7.3046875-1.5380859,2.1103516-3.7070312,3.4414062-6.5068359,3.9931641.0390625.0400391.1269531.1582031.265625.3544922.1376953.1982422.2265625.3554688.2666016.4736328l8.8730469,14.7880859h-10.1152344l-9.109375-15.3203125h-10.8251953v15.3203125h-8.9912109v-38.8632812ZM795.1757335,219.6014492c.828125,0,1.4794922-.2753906,1.9521484-.828125.4736328-.5517578.7099609-1.2617188.7099609-2.1298828v-1.0644531c0-.9072266-.2363281-1.6269531-.7099609-2.1591797-.4726562-.5322266-1.1240234-.7988281-1.9521484-.7988281h-17.8046875v6.9804688h17.8046875Z" class="cls-1"></path>
        <path d="M844.9823742,204.3397305h7.8671875v38.8632812h-8.9316406v-23.1875l-5.8564453,8.28125h-8.1630859l-5.796875-8.28125v23.1875h-8.9912109v-38.8632812h7.8085938l11.2978516,15.6162109,10.765625-15.6162109Z" class="cls-1"></path>
        <path d="M862.0175304,204.3397305h24.6669922c3.7060547,0,6.5751953,1.1533203,8.6064453,3.4609375,2.0302734,2.3066406,3.0458984,5.1367188,3.0458984,8.4882812,0,2.6425781-.9267578,4.9296875-2.7792969,6.8613281,2.7988281,1.9326172,4.1992188,4.6142578,4.1992188,8.0449219,0,3.3916016-1.0253906,6.2402344-3.0761719,8.5478516-2.0507812,2.3066406-4.9296875,3.4599609-8.6357422,3.4599609h-26.0273438v-38.8632812ZM886.6845226,219.6014492c.828125,0,1.4785156-.2753906,1.9521484-.828125.4726562-.5517578.7089844-1.2617188.7089844-2.1298828v-1.0644531c0-.9072266-.2363281-1.6269531-.7089844-2.1591797-.4736328-.5322266-1.1240234-.7988281-1.9521484-.7988281h-15.6757812v6.9804688h15.6757812ZM888.0448742,234.9217617c.828125,0,1.4980469-.2753906,2.0107422-.828125.5126953-.5517578.7695312-1.2617188.7695312-2.1298828v-1.1240234c0-.90625-.2470703-1.6259766-.7392578-2.1582031-.4941406-.5332031-1.1738281-.7988281-2.0410156-.7988281h-17.0361328v7.0390625h17.0361328Z" class="cls-1"></path>
        <path d="M918.980421,204.3397305h12.0087891l15.3789062,38.8632812h-9.6416016l-3.7265625-9.5234375h-16.2666016l-3.6679688,9.5234375h-9.5234375l15.4384766-38.8632812ZM929.9237804,225.3983242l-5.1455078-12.3632812-4.9101562,12.3632812h10.0556641Z" class="cls-1"></path>
        <path d="M960.0321789,204.3397305l21.0585938,24.1933594v-24.1933594h8.9316406v38.8632812h-7.8076172l-20.9404297-24.2529297v24.2529297h-8.9912109v-38.8632812h7.7490234Z" class="cls-1"></path>
        <path d="M1018.0614757,204.3397305c5.875,0,10.6074219,1.8935547,14.1962891,5.6787109,3.5878906,3.7861328,5.3828125,8.3613281,5.3828125,13.7236328,0,5.3632812-1.7949219,9.9472656-5.3828125,13.7529297-3.5888672,3.8056641-8.3212891,5.7080078-14.1962891,5.7080078h-18.8701172v-38.8632812h18.8701172ZM1025.5731945,231.6385586c1.8535156-2.1884766,2.7802734-4.8203125,2.7802734-7.8964844,0-3.0361328-.9267578-5.6494141-2.7802734-7.8378906s-4.3574219-3.2832031-7.5117188-3.2832031h-9.8789062v22.3007812h9.8789062c3.1542969,0,5.6582031-1.0947266,7.5117188-3.2832031Z" class="cls-1"></path>
        <path d="M1043.199171,230.425668h8.9326172v.7695312c0,1.5380859,1.0644531,2.7011719,3.1943359,3.4902344,1.6943359.6308594,3.6865234.9462891,5.9736328.9462891,2.5634766,0,4.6337891-.2958984,6.2119141-.8876953,2.0107422-.7880859,3.0166016-2.0302734,3.0166016-3.7265625,0-1.4580078-1.1044922-2.4443359-3.3125-2.9570312-.8681641-.2373047-1.9521484-.3945312-3.2539062-.4736328-.7490234-.0390625-1.7353516-.0595703-2.9570312-.0595703-2.40625,0-4.5166016-.1376953-6.3300781-.4140625-1.8134766-.2753906-3.5888672-.7978516-5.3232422-1.5673828-1.7353516-.7685547-3.0761719-1.9521484-4.0224609-3.5488281-.9462891-1.5976562-1.4199219-3.5791016-1.4199219-5.9453125,0-2.3261719.4824219-4.3271484,1.4492188-6.0039062.9658203-1.6748047,2.296875-2.9667969,3.9931641-3.8740234,1.6953125-.9072266,3.5283203-1.5673828,5.5009766-1.9814453,1.9716797-.4140625,4.1201172-.6210938,6.4472656-.6210938,2.1689453,0,4.2490234.2460938,6.2412109.7392578,1.9902344.4931641,3.8447266,1.2226562,5.5605469,2.1884766,1.7148438.9667969,3.0849609,2.2978516,4.1103516,3.9931641s1.5380859,3.6279297,1.5380859,5.796875v.828125h-8.9316406v-.828125c0-1.4980469-.9462891-2.6416016-2.8398438-3.4306641-1.65625-.6708984-3.5488281-1.0058594-5.6787109-1.0058594-2.3271484,0-4.2197266.2763672-5.6777344.828125-1.8144531.6308594-2.7216797,1.7548828-2.7216797,3.3710938,0,1.3808594,1.0253906,2.2880859,3.0761719,2.7216797.828125.1972656,1.8339844.3349609,3.0166016.4140625.6699219.0390625,1.5771484.0585938,2.7207031.0585938,1.9326172,0,3.6679688.0800781,5.2060547.2373047s3.125.4833984,4.7617188.9755859c1.6357422.4931641,2.9960938,1.1533203,4.0810547,1.9814453s1.9824219,1.9726562,2.6914062,3.4306641c.7099609,1.4599609,1.0654297,3.1748047,1.0654297,5.1464844,0,2.40625-.5136719,4.4863281-1.5380859,6.2412109-1.0263672,1.7548828-2.4257812,3.1054688-4.2001953,4.0517578s-3.6875,1.6259766-5.7373047,2.0400391c-2.0507812.4140625-4.2988281.6210938-6.7441406.6210938-2.1689453,0-4.2685547-.2363281-6.2988281-.7089844-2.0322266-.4736328-3.9541016-1.1923828-5.7675781-2.1591797-1.8144531-.9658203-3.2734375-2.3076172-4.3779297-4.0224609-1.1044922-1.7158203-1.65625-3.6767578-1.65625-5.8857422v-.7695312Z" class="cls-1"></path>
        <path d="M1095.8456554,204.3397305v15.2617188h19.8164062v-15.2617188h8.9316406v38.8632812h-8.9316406v-15.3203125h-19.8164062v15.3203125h-8.9912109v-38.8632812h8.9912109Z" class="cls-1"></path>
        <path d="M1137.2519054,209.575082c3.5488281-4.0019531,8.3007812-6.0039062,14.2558594-6.0039062,5.9541016,0,10.7060547,2.0019531,14.2558594,6.0039062,3.5488281,4.0029297,5.3232422,8.7246094,5.3232422,14.1669922,0,3.5097656-.7490234,6.7832031-2.2480469,9.8193359-1.4990234,3.0371094-3.765625,5.5302734-6.8017578,7.4824219-3.0371094,1.9521484-6.546875,2.9277344-10.5292969,2.9277344-3.9833984,0-7.4931641-.9755859-10.5292969-2.9277344-3.0371094-1.9521484-5.3046875-4.4453125-6.8027344-7.4824219-1.4990234-3.0361328-2.2480469-6.3095703-2.2480469-9.8193359,0-5.4423828,1.7753906-10.1640625,5.3242188-14.1669922ZM1151.5077648,212.206918c-3.1552734,0-5.6494141,1.1445312-7.4833984,3.4306641-1.8330078,2.2880859-2.75,4.9892578-2.75,8.1044922s.9169922,5.8066406,2.75,8.0742188c1.8339844,2.2675781,4.328125,3.4013672,7.4833984,3.4013672,3.1542969,0,5.6582031-1.1337891,7.5117188-3.4013672s2.7802734-4.9589844,2.7802734-8.0742188-.9267578-5.8164062-2.7802734-8.1044922c-1.8535156-2.2861328-4.3574219-3.4306641-7.5117188-3.4306641Z" class="cls-1"></path>
        <path d="M1178.480421,204.3397305h26.7958984c3.7070312,0,6.5751953,1.1533203,8.6074219,3.4609375,2.0302734,2.3066406,3.0458984,5.1367188,3.0458984,8.4882812,0,3.2734375-1.0351562,6.0244141-3.1054688,8.2519531s-4.9199219,3.3417969-8.5478516,3.3417969h-17.8046875v15.3203125h-8.9912109v-38.8632812ZM1205.2763195,219.6014492c.828125,0,1.4794922-.2753906,1.9521484-.828125.4736328-.5517578.7099609-1.2617188.7099609-2.1298828v-1.0644531c0-.9072266-.2363281-1.6269531-.7099609-2.1591797-.4726562-.5322266-1.1240234-.7988281-1.9521484-.7988281h-17.8046875v6.9804688h17.8046875Z" class="cls-1"></path>
      </g>
    </g>
    <metadata>
      
        
        
      
    </metadata>
  </g>
</svg>